<svg width="466" height="286" viewBox="0 0 466 286" fill="none" xmlns="http://www.w3.org/2000/svg">
<g clip-path="url(#clip0_3_125)">
<g clip-path="url(#clip1_3_125)">
<g clip-path="url(#clip2_3_125)">
<path d="M459.958 155.104H5.47837C2.91712 155.104 0.84082 156.529 0.84082 158.287C0.84082 160.045 2.91712 161.47 5.47837 161.47H459.958C462.52 161.47 464.596 160.045 464.596 158.287C464.596 156.529 462.52 155.104 459.958 155.104Z" fill="#ADBFB8"/>
<g clip-path="url(#clip3_3_125)">
<g clip-path="url(#clip4_3_125)">
<g clip-path="url(#clip5_3_125)">
<g clip-path="url(#clip6_3_125)">
<path d="M2.01526 248.733V178.136H42.9734V187.501H12.3062V208.701H39.1657V218.066H12.3062V248.733H2.01526ZM41.9443 248.733L64.4816 178.136H77.3453L99.8826 248.733H88.8712L84.2403 233.605H56.8662L52.2353 248.733H41.9443ZM59.6448 224.24H81.3588L72.5085 195.322C71.9597 193.539 71.3765 190.76 70.7591 186.987H70.3474C69.73 190.897 69.1468 193.676 68.598 195.322L59.6448 224.24ZM106.675 248.733V178.136H135.366C142.227 178.136 147.496 179.934 151.173 183.529C154.85 187.138 156.689 191.926 156.689 197.895C156.689 202.217 155.584 205.991 153.375 209.215C151.193 212.44 148.182 214.738 144.34 216.11L158.335 248.733H146.912L134.234 218.066H116.966V248.733H106.675ZM116.966 208.804H134.666C138.096 208.804 140.786 207.809 142.734 205.819C144.683 203.83 145.657 201.188 145.657 197.895C145.657 194.671 144.738 192.132 142.899 190.28C141.033 188.427 138.316 187.501 134.748 187.501H116.966V208.804ZM166.753 248.733V178.136H182.087L193.304 222.079C194.059 225.303 194.916 230.621 195.877 238.03H196.289C197.043 230.415 197.798 225.098 198.553 222.079L209.873 178.136H224.897V248.733H214.812V199.439C214.812 197.724 215.052 194.053 215.533 188.427H215.121L214.401 191.515C213.646 195.357 213.063 197.998 212.651 199.439L199.89 248.733H190.731L177.971 199.336C177.285 196.592 176.53 192.955 175.707 188.427H175.295C175.707 194.328 175.912 197.998 175.912 199.439V248.733H166.753ZM237.041 248.733V178.136H252.374L263.592 222.079C264.346 225.303 265.204 230.621 266.164 238.03H266.576C267.331 230.415 268.085 225.098 268.84 222.079L280.16 178.136H295.185V248.733H285.1V199.439C285.1 197.724 285.34 194.053 285.82 188.427H285.408L284.688 191.515C283.933 195.357 283.35 197.998 282.939 199.439L270.178 248.733H261.019L248.258 199.336C247.572 196.592 246.817 192.955 245.994 188.427H245.582C245.994 194.328 246.2 197.998 246.2 199.439V248.733H237.041ZM308.152 248.733V178.136H352.094V187.501H318.443V207.98H347.566V217.242H318.443V239.368H352.712V248.733H308.152ZM364.443 248.733V178.136H408.386V187.501H374.734V207.98H403.858V217.242H374.734V239.368H409.003V248.733H364.443ZM434.401 248.733V187.501H415.672V178.136H463.422V187.501H444.795V248.733H434.401Z" fill="#106902"/>
</g>
</g>
<g clip-path="url(#clip7_3_125)">
<g clip-path="url(#clip8_3_125)">
<path d="M14.9376 278.202V280.784H5.62665C5.38811 280.784 5.13196 280.756 4.85819 280.699C4.58441 280.642 4.31335 280.555 4.045 280.439C3.77665 280.319 3.5205 280.165 3.27654 279.975C3.02987 279.785 2.81303 279.558 2.62599 279.292C2.43625 279.024 2.28581 278.712 2.17468 278.357C2.06083 278.002 2.00391 277.603 2.00391 277.161V270.172C2.00391 269.934 2.03237 269.677 2.08929 269.404C2.14621 269.13 2.23431 268.859 2.35358 268.59C2.47284 268.322 2.62735 268.066 2.81709 267.822C3.00954 267.575 3.23995 267.358 3.5083 267.171C3.77665 266.982 4.08566 266.831 4.43533 266.72C4.78771 266.606 5.18481 266.549 5.62665 266.549H14.9376V269.131H5.62665C5.29053 269.131 5.03302 269.221 4.85412 269.4C4.67522 269.578 4.58577 269.843 4.58577 270.192V277.161C4.58577 277.492 4.67657 277.748 4.85819 277.93C5.0398 278.111 5.29595 278.202 5.62665 278.202H14.9376ZM28.6357 273.669V277.161C28.6357 277.603 28.5801 278.002 28.469 278.357C28.3552 278.712 28.2061 279.024 28.0218 279.292C27.8374 279.558 27.6219 279.785 27.3753 279.975C27.1313 280.165 26.8752 280.319 26.6068 280.439C26.3385 280.555 26.0674 280.642 25.7936 280.699C25.5199 280.756 25.2596 280.784 25.013 280.784H20.3575C19.9997 280.784 19.6094 280.722 19.1865 280.597C18.7636 280.47 18.372 280.262 18.0115 279.975C17.6509 279.688 17.3501 279.314 17.1088 278.853C16.8676 278.392 16.7469 277.828 16.7469 277.161V273.669C16.7469 273.005 16.8676 272.444 17.1088 271.985C17.3501 271.525 17.6509 271.151 18.0115 270.863C18.372 270.576 18.7636 270.369 19.1865 270.241C19.6094 270.117 19.9997 270.054 20.3575 270.054H25.013C25.6744 270.054 26.2368 270.173 26.7003 270.412C27.1638 270.651 27.5379 270.95 27.8225 271.311C28.1071 271.671 28.3145 272.063 28.4446 272.486C28.572 272.908 28.6357 273.303 28.6357 273.669ZM26.0579 277.161V273.685C26.0579 273.33 25.9685 273.066 25.7896 272.892C25.6107 272.721 25.3518 272.636 25.013 272.636H20.3778C20.0336 272.636 19.772 272.723 19.5931 272.896C19.4142 273.072 19.3247 273.33 19.3247 273.669V277.161C19.3247 277.498 19.4142 277.755 19.5931 277.934C19.772 278.113 20.0336 278.202 20.3778 278.202H25.013C25.3654 278.202 25.6269 278.113 25.7977 277.934C25.9712 277.755 26.0579 277.498 26.0579 277.161ZM42.7201 274.828V280.784H40.1423V274.828C40.1423 274.491 40.084 274.189 39.9674 273.921C39.8509 273.653 39.6937 273.422 39.4958 273.23C39.2979 273.037 39.0648 272.889 38.7965 272.786C38.5281 272.686 38.2381 272.636 37.9263 272.636H33.4091V280.784H30.8313V271.335C30.8313 271.156 30.8638 270.988 30.9289 270.831C30.9939 270.676 31.0861 270.541 31.2054 270.424C31.3246 270.31 31.4642 270.22 31.6242 270.152C31.7841 270.087 31.9522 270.054 32.1283 270.054H37.9467C38.272 270.054 38.6148 270.091 38.9754 270.164C39.3359 270.237 39.6923 270.354 40.0447 270.514C40.3998 270.676 40.7373 270.882 41.0571 271.132C41.3797 271.378 41.6643 271.679 41.911 272.034C42.1603 272.389 42.3582 272.797 42.5046 273.258C42.6482 273.722 42.7201 274.245 42.7201 274.828ZM56.8776 274.828V280.784H54.2958V274.828C54.2958 274.491 54.2375 274.189 54.1209 273.921C54.0044 273.653 53.8472 273.422 53.6493 273.23C53.4514 273.037 53.2183 272.889 52.9499 272.786C52.6816 272.686 52.3916 272.636 52.0798 272.636H47.5667V280.784H44.9848V271.335C44.9848 271.156 45.0173 270.988 45.0824 270.831C45.1501 270.676 45.2437 270.541 45.3629 270.424C45.4822 270.31 45.6204 270.22 45.7776 270.152C45.9376 270.087 46.107 270.054 46.2859 270.054H52.1002C52.4254 270.054 52.7683 270.091 53.1288 270.164C53.4894 270.237 53.8472 270.354 54.2022 270.514C54.5546 270.676 54.8921 270.882 55.2147 271.132C55.5345 271.378 55.8191 271.679 56.0685 272.034C56.3152 272.389 56.5117 272.797 56.6581 273.258C56.8044 273.722 56.8776 274.245 56.8776 274.828ZM70.6814 273.608C70.6814 273.966 70.6191 274.35 70.4944 274.763C70.3697 275.177 70.1664 275.561 69.8845 275.913C69.6026 276.268 69.2353 276.565 68.7827 276.804C68.33 277.042 67.7784 277.161 67.1278 277.161H62.4723V274.71H67.1278C67.4802 274.71 67.7526 274.603 67.9451 274.388C68.1348 274.172 68.2297 273.905 68.2297 273.587C68.2297 273.249 68.1226 272.984 67.9085 272.795C67.6943 272.602 67.4341 272.506 67.1278 272.506H62.4723C62.1227 272.506 61.8516 272.613 61.6592 272.827C61.4667 273.044 61.3705 273.311 61.3705 273.628V277.231C61.3705 277.575 61.4789 277.843 61.6957 278.036C61.9099 278.228 62.1755 278.324 62.4927 278.324H67.1278V280.784H62.4723C62.1145 280.784 61.7296 280.722 61.3176 280.597C60.9029 280.47 60.5193 280.265 60.167 279.983C59.8119 279.704 59.5151 279.337 59.2765 278.881C59.038 278.429 58.9187 277.878 58.9187 277.231V273.608C58.9187 273.25 58.9824 272.864 59.1098 272.449C59.2345 272.037 59.4378 271.653 59.7197 271.298C60.0016 270.946 60.3689 270.651 60.8216 270.412C61.2742 270.173 61.8245 270.054 62.4723 270.054H67.1278C67.4856 270.054 67.8719 270.117 68.2866 270.241C68.6986 270.369 69.0822 270.572 69.4373 270.851C69.7924 271.133 70.0878 271.5 70.3236 271.953C70.5622 272.408 70.6814 272.96 70.6814 273.608ZM82.8142 278.202V280.784H75.8126C75.4548 280.784 75.0645 280.722 74.6416 280.597C74.2188 280.47 73.8271 280.262 73.4666 279.975C73.1061 279.688 72.8052 279.314 72.564 278.853C72.3227 278.392 72.2021 277.828 72.2021 277.161V273.669C72.2021 273.422 72.2292 273.163 72.2834 272.892C72.3403 272.621 72.4284 272.351 72.5477 272.083C72.667 271.815 72.8215 271.559 73.0112 271.315C73.1982 271.071 73.4259 270.855 73.6943 270.668C73.9626 270.484 74.2717 270.335 74.6213 270.221C74.9737 270.11 75.3708 270.054 75.8126 270.054H82.8142V272.636H75.8126C75.4765 272.636 75.2204 272.721 75.0442 272.892C74.868 273.066 74.7799 273.33 74.7799 273.685V277.161C74.7799 277.498 74.8693 277.755 75.0482 277.934C75.2271 278.113 75.4887 278.202 75.833 278.202H82.8142ZM94.7029 270.054V272.636H90.1979V280.784H87.5876V272.636H84.2291V270.054H87.5876V266.549H90.1979V270.054H94.7029ZM99.0209 265.517V267.85H96.4391V265.517H99.0209ZM99.0209 270.054V280.784H96.4391V270.054H99.0209ZM113.382 274.828V280.784H110.804V274.828C110.804 274.491 110.746 274.189 110.629 273.921C110.513 273.653 110.355 273.422 110.158 273.23C109.96 273.037 109.727 272.889 109.458 272.786C109.19 272.686 108.9 272.636 108.588 272.636H104.071V280.784H101.489V271.335C101.489 271.156 101.523 270.988 101.591 270.831C101.656 270.676 101.748 270.541 101.867 270.424C101.986 270.31 102.126 270.22 102.286 270.152C102.443 270.087 102.611 270.054 102.79 270.054H108.608C108.934 270.054 109.277 270.091 109.637 270.164C109.998 270.237 110.354 270.354 110.706 270.514C111.061 270.676 111.399 270.882 111.719 271.132C112.041 271.378 112.326 271.679 112.573 272.034C112.822 272.389 113.02 272.797 113.166 273.258C113.31 273.722 113.382 274.245 113.382 274.828ZM127.32 273.669V281.817C127.32 282.259 127.263 282.657 127.149 283.012C127.038 283.367 126.889 283.679 126.702 283.947C126.517 284.213 126.303 284.441 126.059 284.631C125.813 284.82 125.557 284.975 125.291 285.094C125.023 285.213 124.75 285.3 124.474 285.354C124.2 285.411 123.941 285.44 123.697 285.44H119.042V282.858H123.697C124.047 282.858 124.308 282.768 124.482 282.589C124.653 282.411 124.738 282.153 124.738 281.817V273.669C124.738 273.33 124.653 273.072 124.482 272.896C124.308 272.723 124.047 272.636 123.697 272.636H119.042C118.722 272.636 118.47 272.734 118.285 272.929C118.101 273.124 118.009 273.371 118.009 273.669V277.161C118.009 277.498 118.098 277.755 118.277 277.934C118.456 278.113 118.718 278.202 119.062 278.202H123.697V280.784H119.042C118.795 280.784 118.536 280.756 118.265 280.699C117.994 280.642 117.724 280.555 117.456 280.439C117.187 280.319 116.931 280.165 116.687 279.975C116.443 279.785 116.228 279.558 116.041 279.292C115.857 279.024 115.707 278.712 115.594 278.357C115.483 278.002 115.427 277.603 115.427 277.161V273.669C115.427 273.422 115.455 273.163 115.512 272.892C115.567 272.621 115.653 272.351 115.773 272.083C115.892 271.815 116.046 271.559 116.236 271.315C116.426 271.071 116.653 270.855 116.919 270.668C117.187 270.484 117.498 270.335 117.85 270.221C118.2 270.11 118.597 270.054 119.042 270.054H123.697C123.941 270.054 124.2 270.083 124.474 270.14C124.75 270.194 125.023 270.281 125.291 270.4C125.557 270.519 125.813 270.674 126.059 270.863C126.303 271.05 126.517 271.278 126.702 271.546C126.889 271.815 127.038 272.125 127.149 272.477C127.263 272.827 127.32 273.224 127.32 273.669ZM145.791 270.054V272.636H139.953V270.054H145.791ZM145.791 265.399V267.981H139.973C139.623 267.981 139.359 268.067 139.18 268.241C139.001 268.417 138.912 268.673 138.912 269.009V280.784H136.33V269.009C136.33 268.567 136.387 268.172 136.501 267.822C136.612 267.47 136.762 267.159 136.952 266.891C137.139 266.623 137.356 266.395 137.602 266.208C137.846 266.018 138.103 265.864 138.371 265.744C138.639 265.625 138.909 265.538 139.18 265.484C139.451 265.427 139.709 265.399 139.953 265.399H145.791ZM157.721 273.608V277.231C157.721 277.588 157.658 277.973 157.534 278.385C157.406 278.8 157.203 279.185 156.924 279.54C156.642 279.892 156.275 280.188 155.822 280.426C155.367 280.665 154.815 280.784 154.167 280.784H149.512C149.154 280.784 148.769 280.722 148.357 280.597C147.942 280.47 147.557 280.265 147.202 279.983C146.85 279.704 146.554 279.337 146.316 278.881C146.077 278.429 145.958 277.878 145.958 277.231C145.958 276.873 146.02 276.485 146.145 276.068C146.272 275.653 146.477 275.268 146.759 274.913C147.038 274.558 147.405 274.261 147.861 274.023C148.313 273.787 148.864 273.669 149.512 273.669H154.167V276.129H149.512C149.162 276.129 148.891 276.236 148.698 276.45C148.506 276.667 148.41 276.934 148.41 277.251C148.41 277.587 148.521 277.85 148.743 278.04C148.965 278.229 149.228 278.324 149.532 278.324H154.167C154.517 278.324 154.788 278.217 154.98 278.003C155.173 277.792 155.269 277.527 155.269 277.21V273.608C155.269 273.269 155.165 273.001 154.956 272.803C154.747 272.605 154.484 272.506 154.167 272.506H148.499V270.054H154.167C154.525 270.054 154.91 270.117 155.322 270.241C155.737 270.369 156.121 270.572 156.477 270.851C156.829 271.133 157.124 271.5 157.363 271.953C157.601 272.408 157.721 272.96 157.721 273.608ZM169.313 270.054V272.636H163.507C163.157 272.636 162.893 272.723 162.714 272.896C162.535 273.072 162.445 273.33 162.445 273.669V280.784H159.863V273.669C159.863 273.224 159.92 272.827 160.034 272.477C160.145 272.125 160.296 271.815 160.486 271.546C160.673 271.278 160.889 271.05 161.136 270.863C161.38 270.674 161.636 270.519 161.905 270.4C162.173 270.281 162.444 270.194 162.718 270.14C162.991 270.083 163.248 270.054 163.486 270.054H169.313ZM180.592 273.669V280.784H178.01V273.669C178.01 273.33 177.92 273.072 177.741 272.896C177.562 272.723 177.298 272.636 176.948 272.636H173.59V280.784H171.012V271.335C171.012 271.156 171.045 270.988 171.11 270.831C171.175 270.676 171.267 270.541 171.386 270.424C171.506 270.31 171.645 270.22 171.805 270.152C171.962 270.087 172.13 270.054 172.309 270.054H176.965C177.323 270.054 177.707 270.117 178.119 270.241C178.529 270.369 178.919 270.571 179.29 270.847V270.054H182.783C183.027 270.054 183.286 270.083 183.56 270.14C183.831 270.194 184.1 270.281 184.369 270.4C184.634 270.519 184.891 270.674 185.137 270.863C185.381 271.05 185.595 271.278 185.78 271.546C185.967 271.815 186.116 272.125 186.227 272.477C186.341 272.827 186.398 273.224 186.398 273.669V280.784H183.816V273.669C183.816 273.33 183.732 273.072 183.564 272.896C183.393 272.723 183.133 272.636 182.783 272.636H180.461C180.548 272.953 180.592 273.297 180.592 273.669ZM200.311 273.608C200.311 273.966 200.249 274.35 200.124 274.763C200 275.177 199.796 275.561 199.514 275.913C199.232 276.268 198.865 276.565 198.412 276.804C197.96 277.042 197.408 277.161 196.758 277.161H192.102V274.71H196.758C197.11 274.71 197.382 274.603 197.575 274.388C197.765 274.172 197.859 273.905 197.859 273.587C197.859 273.249 197.752 272.984 197.538 272.795C197.324 272.602 197.064 272.506 196.758 272.506H192.102C191.752 272.506 191.481 272.613 191.289 272.827C191.097 273.044 191 273.311 191 273.628V277.231C191 277.575 191.109 277.843 191.326 278.036C191.54 278.228 191.805 278.324 192.122 278.324H196.758V280.784H192.102C191.744 280.784 191.359 280.722 190.947 280.597C190.533 280.47 190.149 280.265 189.797 279.983C189.442 279.704 189.145 279.337 188.906 278.881C188.668 278.429 188.549 277.878 188.549 277.231V273.608C188.549 273.25 188.612 272.864 188.74 272.449C188.864 272.037 189.068 271.653 189.35 271.298C189.631 270.946 189.999 270.651 190.451 270.412C190.904 270.173 191.454 270.054 192.102 270.054H196.758C197.115 270.054 197.502 270.117 197.916 270.241C198.328 270.369 198.712 270.572 199.067 270.851C199.422 271.133 199.718 271.5 199.953 271.953C200.192 272.408 200.311 272.96 200.311 273.608ZM211.44 270.054V272.636H205.634C205.281 272.636 205.016 272.723 204.837 272.896C204.658 273.072 204.568 273.33 204.568 273.669V280.784H201.99V273.669C201.99 273.224 202.046 272.827 202.157 272.477C202.271 272.125 202.421 271.815 202.608 271.546C202.798 271.278 203.015 271.05 203.259 270.863C203.506 270.674 203.762 270.519 204.027 270.4C204.296 270.281 204.568 270.194 204.845 270.14C205.119 270.083 205.375 270.054 205.613 270.054H211.44ZM223.507 277.161C223.507 277.603 223.452 278.002 223.341 278.357C223.227 278.712 223.078 279.024 222.893 279.292C222.709 279.558 222.494 279.785 222.247 279.975C222.003 280.165 221.747 280.319 221.478 280.439C221.21 280.555 220.939 280.642 220.665 280.699C220.392 280.756 220.131 280.784 219.885 280.784H212.899V278.202H219.864C220.217 278.202 220.482 278.113 220.661 277.934C220.84 277.755 220.93 277.498 220.93 277.161C220.894 276.473 220.546 276.129 219.885 276.129H215.884C215.315 276.129 214.832 276.03 214.436 275.832C214.041 275.631 213.718 275.383 213.469 275.088C213.219 274.79 213.04 274.468 212.932 274.124C212.823 273.78 212.769 273.459 212.769 273.161C212.769 272.586 212.872 272.101 213.078 271.705C213.282 271.312 213.539 270.993 213.851 270.749C214.163 270.503 214.5 270.325 214.863 270.217C215.226 270.108 215.567 270.054 215.884 270.054H222.227V272.636H215.904C215.771 272.636 215.667 272.651 215.591 272.681C215.515 272.711 215.46 272.75 215.424 272.799C215.386 272.847 215.365 272.9 215.359 272.957C215.354 273.014 215.351 273.068 215.351 273.12C215.357 273.226 215.376 273.308 215.408 273.368C215.441 273.428 215.483 273.471 215.534 273.498C215.583 273.525 215.638 273.54 215.701 273.543C215.763 273.545 215.824 273.547 215.884 273.547H219.885C220.546 273.547 221.108 273.666 221.572 273.905C222.035 274.143 222.41 274.443 222.694 274.803C222.979 275.164 223.186 275.555 223.316 275.978C223.444 276.404 223.507 276.798 223.507 277.161ZM227.915 277.617L226.378 282.61H224.56L225.483 277.617H227.915ZM248.334 273.669V277.161C248.334 277.405 248.305 277.663 248.249 277.934C248.192 278.205 248.104 278.475 247.984 278.743C247.865 279.011 247.712 279.268 247.525 279.512C247.335 279.758 247.106 279.975 246.838 280.162C246.569 280.352 246.26 280.502 245.911 280.613C245.561 280.727 245.164 280.784 244.719 280.784H240.064C239.82 280.784 239.562 280.756 239.291 280.699C239.018 280.642 238.748 280.555 238.482 280.439C238.214 280.319 237.956 280.165 237.71 279.975C237.466 279.785 237.249 279.558 237.059 279.292C236.872 279.024 236.722 278.712 236.608 278.357C236.497 278.002 236.441 277.603 236.441 277.161V265.517H239.023V277.161C239.023 277.479 239.122 277.732 239.32 277.922C239.518 278.109 239.766 278.202 240.064 278.202H244.719C245.045 278.202 245.298 278.106 245.48 277.914C245.661 277.724 245.752 277.473 245.752 277.161V273.669C245.752 273.343 245.656 273.09 245.463 272.908C245.271 272.727 245.023 272.636 244.719 272.636H240.064V270.054H244.719C244.963 270.054 245.221 270.083 245.492 270.14C245.763 270.194 246.033 270.281 246.301 270.4C246.569 270.519 246.827 270.674 247.073 270.863C247.317 271.05 247.532 271.278 247.716 271.546C247.903 271.815 248.052 272.125 248.163 272.477C248.277 272.827 248.334 273.224 248.334 273.669ZM262.268 270.054V279.483C262.268 279.67 262.235 279.842 262.17 279.999C262.102 280.159 262.012 280.296 261.898 280.41C261.781 280.527 261.644 280.619 261.487 280.687C261.333 280.752 261.166 280.784 260.987 280.784H255.152C254.833 280.784 254.492 280.748 254.132 280.674C253.771 280.601 253.416 280.483 253.067 280.321C252.717 280.161 252.378 279.956 252.05 279.707C251.722 279.46 251.436 279.159 251.192 278.804C250.946 278.449 250.748 278.04 250.599 277.576C250.45 277.115 250.375 276.594 250.375 276.011V270.054H252.957V276.011C252.957 276.347 253.015 276.649 253.132 276.917C253.248 277.186 253.405 277.416 253.603 277.609C253.801 277.801 254.034 277.947 254.303 278.048C254.571 278.151 254.861 278.202 255.173 278.202H259.686V270.054H262.268ZM276.523 270.054V281.817C276.523 282.259 276.466 282.657 276.352 283.012C276.241 283.367 276.092 283.679 275.905 283.947C275.721 284.213 275.506 284.441 275.263 284.631C275.016 284.82 274.758 284.975 274.49 285.094C274.224 285.213 273.955 285.3 273.681 285.354C273.41 285.411 273.152 285.44 272.908 285.44H268.253V282.858H272.908C273.253 282.858 273.51 282.768 273.681 282.589C273.854 282.411 273.941 282.153 273.941 281.817V270.054H276.523ZM272.908 278.202V280.784H268.253C267.882 280.784 267.486 280.722 267.066 280.597C266.645 280.47 266.254 280.262 265.891 279.975C265.527 279.688 265.226 279.314 264.988 278.853C264.749 278.392 264.63 277.828 264.63 277.161V270.054H267.212V277.161C267.212 277.498 267.301 277.755 267.48 277.934C267.659 278.113 267.924 278.202 268.273 278.202H272.908ZM290.526 273.608C290.526 273.966 290.464 274.35 290.339 274.763C290.214 275.177 290.011 275.561 289.729 275.913C289.447 276.268 289.08 276.565 288.627 276.804C288.175 277.042 287.623 277.161 286.972 277.161H282.317V274.71H286.972C287.325 274.71 287.596 274.603 287.786 274.388C287.978 274.172 288.074 273.905 288.074 273.587C288.074 273.249 287.967 272.984 287.753 272.795C287.539 272.602 287.279 272.506 286.972 272.506H282.317C281.967 272.506 281.696 272.613 281.504 272.827C281.311 273.044 281.215 273.311 281.215 273.628V277.231C281.215 277.575 281.323 277.843 281.54 278.036C281.754 278.228 282.02 278.324 282.337 278.324H286.972V280.784H282.317C281.959 280.784 281.574 280.722 281.162 280.597C280.747 280.47 280.364 280.265 280.012 279.983C279.656 279.704 279.36 279.337 279.121 278.881C278.883 278.429 278.763 277.878 278.763 277.231V273.608C278.763 273.25 278.827 272.864 278.954 272.449C279.079 272.037 279.282 271.653 279.564 271.298C279.846 270.946 280.213 270.651 280.666 270.412C281.119 270.173 281.669 270.054 282.317 270.054H286.972C287.33 270.054 287.716 270.117 288.131 270.241C288.543 270.369 288.927 270.572 289.282 270.851C289.637 271.133 289.932 271.5 290.168 271.953C290.407 272.408 290.526 272.96 290.526 273.608ZM301.654 270.054V272.636H295.848C295.496 272.636 295.23 272.723 295.051 272.896C294.872 273.072 294.783 273.33 294.783 273.669V280.784H292.205V273.669C292.205 273.224 292.261 272.827 292.372 272.477C292.486 272.125 292.636 271.815 292.823 271.546C293.013 271.278 293.23 271.05 293.474 270.863C293.718 270.674 293.974 270.519 294.242 270.4C294.511 270.281 294.783 270.194 295.059 270.14C295.333 270.083 295.589 270.054 295.828 270.054H301.654ZM313.722 277.161C313.722 277.603 313.667 278.002 313.555 278.357C313.442 278.712 313.292 279.024 313.108 279.292C312.924 279.558 312.708 279.785 312.462 279.975C312.218 280.165 311.962 280.319 311.693 280.439C311.425 280.555 311.154 280.642 310.88 280.699C310.606 280.756 310.346 280.784 310.099 280.784H303.114V278.202H310.079C310.431 278.202 310.697 278.113 310.876 277.934C311.055 277.755 311.144 277.498 311.144 277.161C311.109 276.473 310.761 276.129 310.099 276.129H306.098C305.529 276.129 305.047 276.03 304.651 275.832C304.253 275.631 303.93 275.383 303.683 275.088C303.434 274.79 303.255 274.468 303.147 274.124C303.038 273.78 302.984 273.459 302.984 273.161C302.984 272.586 303.086 272.101 303.289 271.705C303.495 271.312 303.754 270.993 304.066 270.749C304.377 270.503 304.715 270.325 305.078 270.217C305.441 270.108 305.781 270.054 306.098 270.054H312.441V272.636H306.119C305.986 272.636 305.882 272.651 305.806 272.681C305.73 272.711 305.674 272.75 305.639 272.799C305.601 272.847 305.579 272.9 305.574 272.957C305.569 273.014 305.566 273.068 305.566 273.12C305.571 273.226 305.59 273.308 305.623 273.368C305.655 273.428 305.697 273.471 305.749 273.498C305.798 273.525 305.853 273.54 305.916 273.543C305.978 273.545 306.039 273.547 306.098 273.547H310.099C310.761 273.547 311.323 273.666 311.787 273.905C312.25 274.143 312.624 274.443 312.909 274.803C313.194 275.164 313.401 275.555 313.531 275.978C313.658 276.404 313.722 276.798 313.722 277.161ZM318.13 277.617L316.593 282.61H314.775L315.698 277.617H318.13ZM337.695 273.608V277.231C337.695 277.588 337.631 277.973 337.504 278.385C337.379 278.8 337.176 279.185 336.894 279.54C336.612 279.892 336.245 280.188 335.792 280.426C335.339 280.665 334.789 280.784 334.141 280.784H329.486C329.128 280.784 328.742 280.722 328.327 280.597C327.915 280.47 327.531 280.265 327.176 279.983C326.821 279.704 326.524 279.337 326.286 278.881C326.05 278.429 325.932 277.878 325.932 277.231C325.932 276.873 325.994 276.485 326.119 276.068C326.244 275.653 326.447 275.268 326.729 274.913C327.011 274.558 327.378 274.261 327.831 274.023C328.284 273.787 328.835 273.669 329.486 273.669H334.141V276.129H329.486C329.133 276.129 328.861 276.236 328.668 276.45C328.479 276.667 328.384 276.934 328.384 277.251C328.384 277.587 328.494 277.85 328.713 278.04C328.935 278.229 329.198 278.324 329.502 278.324H334.141C334.491 278.324 334.762 278.217 334.954 278.003C335.147 277.792 335.243 277.527 335.243 277.21V273.608C335.243 273.269 335.139 273.001 334.93 272.803C334.721 272.605 334.458 272.506 334.141 272.506H328.473V270.054H334.141C334.496 270.054 334.881 270.117 335.296 270.241C335.711 270.369 336.094 270.572 336.447 270.851C336.802 271.133 337.098 271.5 337.337 271.953C337.576 272.408 337.695 272.96 337.695 273.608ZM351.787 274.828V280.784H349.205V274.828C349.205 274.491 349.148 274.189 349.035 273.921C348.918 273.653 348.761 273.422 348.563 273.23C348.362 273.037 348.129 272.889 347.864 272.786C347.595 272.686 347.305 272.636 346.994 272.636H342.476V280.784H339.894V271.335C339.894 271.156 339.928 270.988 339.996 270.831C340.061 270.676 340.153 270.541 340.273 270.424C340.392 270.31 340.531 270.22 340.691 270.152C340.849 270.087 341.017 270.054 341.196 270.054H347.014C347.336 270.054 347.679 270.091 348.043 270.164C348.403 270.237 348.76 270.354 349.112 270.514C349.467 270.676 349.804 270.882 350.124 271.132C350.447 271.378 350.732 271.679 350.978 272.034C351.228 272.389 351.424 272.797 351.568 273.258C351.714 273.722 351.787 274.245 351.787 274.828ZM365.823 265.517V277.161C365.823 277.603 365.767 278.002 365.656 278.357C365.542 278.712 365.393 279.024 365.209 279.292C365.022 279.558 364.806 279.785 364.562 279.975C364.318 280.165 364.062 280.319 363.794 280.439C363.526 280.555 363.255 280.642 362.981 280.699C362.704 280.756 362.444 280.784 362.2 280.784H357.545C357.1 280.784 356.703 280.727 356.353 280.613C356.004 280.502 355.695 280.352 355.426 280.162C355.158 279.975 354.929 279.758 354.739 279.512C354.552 279.268 354.399 279.011 354.28 278.743C354.16 278.475 354.072 278.204 354.015 277.93C353.958 277.656 353.93 277.4 353.93 277.161V273.669C353.93 273.005 354.051 272.444 354.292 271.985C354.533 271.525 354.835 271.151 355.199 270.863C355.559 270.576 355.951 270.369 356.374 270.241C356.797 270.117 357.187 270.054 357.545 270.054H362.2V272.636H357.565C357.221 272.636 356.959 272.723 356.78 272.896C356.601 273.072 356.512 273.33 356.512 273.669V277.141C356.512 277.491 356.6 277.755 356.776 277.934C356.95 278.113 357.206 278.202 357.545 278.202H362.2C362.55 278.202 362.811 278.113 362.985 277.934C363.156 277.755 363.241 277.498 363.241 277.161V265.517H365.823ZM385.266 277.161C385.266 277.603 385.211 278.002 385.099 278.357C384.986 278.712 384.836 279.024 384.652 279.292C384.468 279.558 384.252 279.785 384.006 279.975C383.762 280.165 383.506 280.319 383.237 280.439C382.969 280.555 382.698 280.642 382.424 280.699C382.15 280.756 381.89 280.784 381.643 280.784H374.654V278.202H381.623C381.975 278.202 382.241 278.113 382.42 277.934C382.599 277.755 382.688 277.498 382.688 277.161C382.653 276.473 382.305 276.129 381.643 276.129H377.643C377.073 276.129 376.591 276.03 376.195 275.832C375.797 275.631 375.474 275.383 375.227 275.088C374.978 274.79 374.799 274.468 374.691 274.124C374.582 273.78 374.528 273.459 374.528 273.161C374.528 272.586 374.63 272.101 374.833 271.705C375.039 271.312 375.298 270.993 375.61 270.749C375.921 270.503 376.259 270.325 376.622 270.217C376.985 270.108 377.325 270.054 377.643 270.054H383.985V272.636H377.663C377.53 272.636 377.426 272.651 377.35 272.681C377.274 272.711 377.218 272.75 377.183 272.799C377.145 272.847 377.123 272.9 377.118 272.957C377.11 273.014 377.106 273.068 377.106 273.12C377.114 273.226 377.134 273.308 377.167 273.368C377.199 273.428 377.241 273.471 377.293 273.498C377.342 273.525 377.397 273.54 377.46 273.543C377.522 273.545 377.583 273.547 377.643 273.547H381.643C382.305 273.547 382.867 273.666 383.331 273.905C383.794 274.143 384.168 274.443 384.453 274.803C384.738 275.164 384.945 275.555 385.075 275.978C385.202 276.404 385.266 276.798 385.266 277.161ZM398.806 270.054V279.483C398.806 279.67 398.773 279.842 398.708 279.999C398.64 280.159 398.549 280.296 398.436 280.41C398.319 280.527 398.182 280.619 398.025 280.687C397.87 280.752 397.704 280.784 397.525 280.784H391.69C391.37 280.784 391.03 280.748 390.67 280.674C390.309 280.601 389.954 280.483 389.604 280.321C389.255 280.161 388.916 279.956 388.588 279.707C388.26 279.46 387.974 279.159 387.73 278.804C387.483 278.449 387.286 278.04 387.136 277.576C386.987 277.115 386.913 276.594 386.913 276.011V270.054H389.495V276.011C389.495 276.347 389.553 276.649 389.669 276.917C389.786 277.186 389.943 277.416 390.141 277.609C390.339 277.801 390.572 277.947 390.84 278.048C391.109 278.151 391.399 278.202 391.711 278.202H396.224V270.054H398.806ZM413.061 273.669V277.161C413.061 277.603 413.004 278.002 412.89 278.357C412.779 278.712 412.63 279.024 412.443 279.292C412.258 279.558 412.044 279.785 411.8 279.975C411.554 280.165 411.296 280.319 411.028 280.439C410.762 280.555 410.492 280.642 410.219 280.699C409.948 280.756 409.69 280.784 409.446 280.784H404.791V278.202H409.446C409.79 278.202 410.048 278.113 410.219 277.934C410.392 277.755 410.479 277.498 410.479 277.161V273.685C410.479 273.33 410.391 273.066 410.215 272.892C410.041 272.721 409.785 272.636 409.446 272.636H404.811C404.461 272.636 404.197 272.723 404.018 272.896C403.839 273.072 403.75 273.33 403.75 273.669V284.139H401.168V273.669C401.168 273.224 401.223 272.827 401.335 272.477C401.448 272.125 401.6 271.815 401.79 271.546C401.977 271.278 402.193 271.05 402.436 270.863C402.683 270.674 402.941 270.519 403.209 270.4C403.477 270.281 403.748 270.194 404.022 270.14C404.296 270.083 404.552 270.054 404.791 270.054H409.446C409.891 270.054 410.288 270.11 410.637 270.221C410.987 270.335 411.296 270.484 411.565 270.668C411.833 270.855 412.062 271.071 412.252 271.315C412.439 271.559 412.592 271.815 412.711 272.083C412.83 272.351 412.918 272.621 412.975 272.892C413.032 273.163 413.061 273.422 413.061 273.669ZM427.096 273.669V277.161C427.096 277.603 427.039 278.002 426.926 278.357C426.814 278.712 426.665 279.024 426.478 279.292C426.294 279.558 426.08 279.785 425.836 279.975C425.589 280.165 425.332 280.319 425.063 280.439C424.795 280.555 424.525 280.642 424.254 280.699C423.983 280.756 423.726 280.784 423.482 280.784H418.826V278.202H423.482C423.826 278.202 424.083 278.113 424.254 277.934C424.428 277.755 424.514 277.498 424.514 277.161V273.685C424.514 273.33 424.426 273.066 424.25 272.892C424.074 272.721 423.818 272.636 423.482 272.636H418.847C418.494 272.636 418.229 272.723 418.05 272.896C417.873 273.072 417.785 273.33 417.785 273.669V284.139H415.203V273.669C415.203 273.224 415.259 272.827 415.37 272.477C415.484 272.125 415.634 271.815 415.822 271.546C416.011 271.278 416.228 271.05 416.472 270.863C416.719 270.674 416.976 270.519 417.245 270.4C417.51 270.281 417.781 270.194 418.058 270.14C418.332 270.083 418.588 270.054 418.826 270.054H423.482C423.926 270.054 424.323 270.11 424.673 270.221C425.023 270.335 425.332 270.484 425.6 270.668C425.868 270.855 426.097 271.071 426.287 271.315C426.474 271.559 426.627 271.815 426.747 272.083C426.866 272.351 426.954 272.621 427.011 272.892C427.068 273.163 427.096 273.422 427.096 273.669ZM434.012 278.202V280.784H432.862C432.49 280.784 432.095 280.722 431.675 280.597C431.254 280.47 430.863 280.262 430.5 279.975C430.134 279.688 429.833 279.314 429.597 278.853C429.358 278.392 429.239 277.828 429.239 277.161V265.517H431.817V277.161C431.817 277.479 431.917 277.732 432.118 277.922C432.316 278.109 432.564 278.202 432.862 278.202H434.012ZM438.29 265.517V267.85H435.708V265.517H438.29ZM438.29 270.054V280.784H435.708V270.054H438.29ZM452.305 273.608C452.305 273.966 452.243 274.35 452.118 274.763C451.991 275.177 451.787 275.561 451.508 275.913C451.226 276.268 450.859 276.565 450.406 276.804C449.951 277.042 449.399 277.161 448.751 277.161H444.096V274.71H448.751C449.101 274.71 449.372 274.603 449.565 274.388C449.757 274.172 449.853 273.905 449.853 273.587C449.853 273.249 449.746 272.984 449.532 272.795C449.315 272.602 449.055 272.506 448.751 272.506H444.096C443.746 272.506 443.475 272.613 443.283 272.827C443.09 273.044 442.994 273.311 442.994 273.628V277.231C442.994 277.575 443.101 277.843 443.315 278.036C443.532 278.228 443.799 278.324 444.116 278.324H448.751V280.784H444.096C443.738 280.784 443.353 280.722 442.941 280.597C442.526 280.47 442.142 280.265 441.786 279.983C441.434 279.704 441.139 279.337 440.9 278.881C440.662 278.429 440.542 277.878 440.542 277.231V273.608C440.542 273.25 440.605 272.864 440.729 272.449C440.857 272.037 441.061 271.653 441.343 271.298C441.623 270.946 441.99 270.651 442.445 270.412C442.898 270.173 443.448 270.054 444.096 270.054H448.751C449.109 270.054 449.494 270.117 449.906 270.241C450.321 270.369 450.706 270.572 451.061 270.851C451.413 271.133 451.709 271.5 451.947 271.953C452.186 272.408 452.305 272.96 452.305 273.608ZM463.434 270.054V272.636H457.623C457.274 272.636 457.009 272.723 456.83 272.896C456.652 273.072 456.562 273.33 456.562 273.669V280.784H453.98V273.669C453.98 273.224 454.037 272.827 454.151 272.477C454.262 272.125 454.413 271.815 454.602 271.546C454.792 271.278 455.009 271.05 455.253 270.863C455.497 270.674 455.753 270.519 456.021 270.4C456.29 270.281 456.561 270.194 456.835 270.14C457.111 270.083 457.368 270.054 457.607 270.054H463.434Z" fill="#ADBFB8"/>
</g>
</g>
</g>
</g>
<g clip-path="url(#clip9_3_125)">
<g clip-path="url(#clip10_3_125)">
<path d="M356.026 59.6332H289.973C288.558 59.6172 287.155 59.8864 285.847 60.4247C284.538 60.963 283.352 61.7595 282.358 62.7665L232.7 112.388L196.595 76.2832V106.778L225.086 135.268C227.125 137.249 229.857 138.357 232.7 138.357C235.543 138.357 238.275 137.249 240.315 135.268L279.99 95.5927V128.382C280 131.017 281.051 133.542 282.914 135.405C284.777 137.268 287.302 138.319 289.936 138.329H356.026C358.664 138.329 361.194 137.281 363.059 135.415C364.924 133.55 365.972 131.02 365.972 128.382V69.5795C365.963 66.9445 364.912 64.4202 363.048 62.557C361.185 60.6938 358.661 59.6428 356.026 59.6332Z" fill="#096A2E"/>
<path d="M175.5 59.6332H109.411C103.918 59.6332 99.4645 64.0863 99.4645 69.5794V128.492C99.4645 133.985 103.918 138.438 109.411 138.438H175.5C180.993 138.438 185.447 133.985 185.447 128.492V69.5794C185.447 64.0863 180.993 59.6332 175.5 59.6332Z" fill="#096A2E"/>
<path d="M142.456 46.5173C155.132 46.5173 165.408 36.241 165.408 23.5645C165.408 10.888 155.132 0.611694 142.456 0.611694C129.779 0.611694 119.503 10.888 119.503 23.5645C119.503 36.241 129.779 46.5173 142.456 46.5173Z" fill="#096A2E"/>
<path d="M142.456 46.5173C155.132 46.5173 165.408 36.241 165.408 23.5645C165.408 10.888 155.132 0.611694 142.456 0.611694C129.779 0.611694 119.503 10.888 119.503 23.5645C119.503 36.241 129.779 46.5173 142.456 46.5173Z" fill="#096A2E"/>
<path d="M322.981 46.5173C335.658 46.5173 345.934 36.241 345.934 23.5645C345.934 10.888 335.658 0.611694 322.981 0.611694C310.305 0.611694 300.028 10.888 300.028 23.5645C300.028 36.241 310.305 46.5173 322.981 46.5173Z" fill="#096A2E"/>
<path d="M322.981 46.5173C335.658 46.5173 345.934 36.241 345.934 23.5645C345.934 10.888 335.658 0.611694 322.981 0.611694C310.305 0.611694 300.028 10.888 300.028 23.5645C300.028 36.241 310.305 46.5173 322.981 46.5173Z" fill="#096A2E"/>
</g>
</g>
</g>
</g>
</g>
<defs>
<clipPath id="clip0_3_125">
<rect width="464.8" height="284.922" fill="white" transform="translate(0.318359 0.528076)"/>
</clipPath>
<clipPath id="clip1_3_125">
<rect width="463.755" height="284.901" fill="white" transform="translate(0.84082 0.538818)"/>
</clipPath>
<clipPath id="clip2_3_125">
<rect width="463.755" height="284.901" fill="white" transform="translate(0.84082 0.538818)"/>
</clipPath>
<clipPath id="clip3_3_125">
<rect width="461.448" height="107.303" fill="white" transform="translate(1.99438 178.136)"/>
</clipPath>
<clipPath id="clip4_3_125">
<rect width="461.448" height="107.303" fill="white" transform="translate(1.99438 178.136)"/>
</clipPath>
<clipPath id="clip5_3_125">
<rect width="461.448" height="70.5962" fill="white" transform="translate(1.99438 178.136)"/>
</clipPath>
<clipPath id="clip6_3_125">
<rect width="461.448" height="70.5962" fill="white" transform="translate(1.99438 178.136)"/>
</clipPath>
<clipPath id="clip7_3_125">
<rect width="461.448" height="20.0409" fill="white" transform="translate(1.99438 265.399)"/>
</clipPath>
<clipPath id="clip8_3_125">
<rect width="461.448" height="20.0409" fill="white" transform="translate(1.99438 265.399)"/>
</clipPath>
<clipPath id="clip9_3_125">
<rect width="285.175" height="137.899" fill="white" transform="translate(90.131 0.538818)"/>
</clipPath>
<clipPath id="clip10_3_125">
<rect width="266.508" height="137.899" fill="white" transform="translate(99.4645 0.538818)"/>
</clipPath>
</defs>
</svg>
