<svg width="39" height="40" viewBox="0 0 39 40" fill="none" xmlns="http://www.w3.org/2000/svg">
<g clip-path="url(#clip0_3_185)">
<path d="M39 20.4431C39 18.8034 38.8672 17.6068 38.5799 16.366H19.8979V23.7669H30.8638C30.6428 25.6061 29.449 28.376 26.7959 30.2372L26.7587 30.485L32.6656 35.0713L33.0748 35.1123C36.8332 31.6333 39 26.5146 39 20.4431Z" fill="#4285F4"/>
<path d="M19.8979 39.9428C25.2703 39.9428 29.7805 38.17 33.0748 35.1122L26.7958 30.2372C25.1156 31.4116 22.8605 32.2315 19.8979 32.2315C14.6361 32.2315 10.1701 28.7527 8.57812 23.9442L8.34477 23.9641L2.2027 28.7282L2.12238 28.952C5.39445 35.4666 12.1156 39.9428 19.8979 39.9428Z" fill="#34A853"/>
<path d="M8.57815 23.9443C8.15809 22.7034 7.91498 21.3738 7.91498 20C7.91498 18.6261 8.15809 17.2966 8.55605 16.0558L8.54492 15.7915L2.32587 10.9508L2.1224 11.0478C0.773818 13.7512 0 16.787 0 20C0 23.213 0.773818 26.2487 2.1224 28.9521L8.57815 23.9443Z" fill="#FBBC05"/>
<path d="M19.8979 7.76832C23.6343 7.76832 26.1546 9.38589 27.5918 10.7377L33.2074 5.24227C29.7585 2.02926 25.2703 0.0571289 19.8979 0.0571289C12.1156 0.0571289 5.39445 4.53316 2.12238 11.0478L8.55602 16.0557C10.1701 11.2473 14.6361 7.76832 19.8979 7.76832Z" fill="#EB4335"/>
</g>
<defs>
<clipPath id="clip0_3_185">
<rect width="39" height="40" fill="white"/>
</clipPath>
</defs>
</svg>
