<svg xmlns="http://www.w3.org/2000/svg" version="1.1" xmlns:xlink="http://www.w3.org/1999/xlink" xmlns:svgjs="http://svgjs.dev/svgjs" width="1000" height="1000" viewBox="0 0 1000 1000"><rect width="1000" height="1000" fill="#ffffff"></rect><g transform="matrix(0.7,0,0,0.7,149.57575757575756,285.4337854800508)"><svg viewBox="0 0 396 243" data-background-color="#ffffff" preserveAspectRatio="xMidYMid meet" height="613" width="1000" xmlns="http://www.w3.org/2000/svg" xmlns:xlink="http://www.w3.org/1999/xlink"><g id="tight-bounds" transform="matrix(1,0,0,1,0.2400000000000091,0.009182307964763936)"><svg viewBox="0 0 395.52 242.98163538407047" height="242.98163538407047" width="395.52"><g><svg viewBox="0 0 397.4975999999999 244.1965435609908" height="242.98163538407047" width="395.52"><g><rect width="397.4975999999999" height="5.456851832911473" x="0" y="132.48215743621182" fill="#adbfb8" opacity="1" stroke-width="0" stroke="transparent" fill-opacity="1" class="rect-o-0" data-fill-palette-color="secondary" rx="1%" id="o-0" data-palette-color="#adbfb8"></rect></g><g transform="matrix(1,0,0,1,0.9887999999999693,152.22396171129992)"><svg viewBox="0 0 395.52 91.97258184969085" height="91.97258184969085" width="395.52"><g id="textblocktransform"><svg viewBox="0 0 395.52 91.97258184969085" height="91.97258184969085" width="395.52" id="textblock"><g><svg viewBox="0 0 395.52 60.5099732381802" height="60.5099732381802" width="395.52"><g transform="matrix(1,0,0,1,0,0)"><svg width="395.52" viewBox="3.3499999046325684 -34.29999923706055 224.17999267578125 34.29999923706055" height="60.5099732381802" data-palette-color="#106902"><path d="M3.35 0L3.35-34.3 23.25-34.3 23.25-29.75 8.35-29.75 8.35-19.45 21.4-19.45 21.4-14.9 8.35-14.9 8.35 0 3.35 0ZM22.75 0L33.7-34.3 39.95-34.3 50.9 0 45.55 0 43.3-7.35 30-7.35 27.75 0 22.75 0ZM31.35-11.9L41.9-11.9 37.6-25.95Q37.2-27.25 36.75-30L36.75-30 36.55-30Q36.1-27.15 35.7-25.95L35.7-25.95 31.35-11.9ZM54.2 0L54.2-34.3 68.14-34.3Q73.14-34.3 75.82-31.68 78.5-29.05 78.5-24.7L78.5-24.7Q78.5-21.55 76.89-19.2 75.3-16.85 72.5-15.85L72.5-15.85 79.3 0 73.75 0 67.59-14.9 59.2-14.9 59.2 0 54.2 0ZM59.2-19.4L67.8-19.4Q70.3-19.4 71.72-20.85 73.14-22.3 73.14-24.7L73.14-24.7Q73.14-27.05 71.8-28.4 70.44-29.75 67.84-29.75L67.84-29.75 59.2-29.75 59.2-19.4ZM83.39 0L83.39-34.3 90.84-34.3 96.29-12.95Q96.84-10.6 97.54-5.2L97.54-5.2 97.74-5.2Q98.29-10.75 98.84-12.95L98.84-12.95 104.34-34.3 111.64-34.3 111.64 0 106.74 0 106.74-23.95Q106.74-25.2 107.09-29.3L107.09-29.3 106.89-29.3 106.54-27.8Q105.99-25 105.69-23.95L105.69-23.95 99.49 0 95.04 0 88.84-24Q88.34-26 87.74-29.3L87.74-29.3 87.54-29.3Q87.84-25 87.84-23.95L87.84-23.95 87.84 0 83.39 0ZM117.54 0L117.54-34.3 124.99-34.3 130.44-12.95Q130.99-10.6 131.69-5.2L131.69-5.2 131.89-5.2Q132.44-10.75 132.99-12.95L132.99-12.95 138.49-34.3 145.79-34.3 145.79 0 140.89 0 140.89-23.95Q140.89-25.2 141.24-29.3L141.24-29.3 141.04-29.3 140.69-27.8Q140.14-25 139.84-23.95L139.84-23.95 133.64 0 129.19 0 122.99-24Q122.49-26 121.89-29.3L121.89-29.3 121.69-29.3Q121.99-25 121.99-23.95L121.99-23.95 121.99 0 117.54 0ZM152.09 0L152.09-34.3 173.44-34.3 173.44-29.75 157.09-29.75 157.09-19.8 171.24-19.8 171.24-15.3 157.09-15.3 157.09-4.55 173.74-4.55 173.74 0 152.09 0ZM179.44 0L179.44-34.3 200.79-34.3 200.79-29.75 184.44-29.75 184.44-19.8 198.59-19.8 198.59-15.3 184.44-15.3 184.44-4.55 201.09-4.55 201.09 0 179.44 0ZM213.43 0L213.43-29.75 204.33-29.75 204.33-34.3 227.53-34.3 227.53-29.75 218.48-29.75 218.48 0 213.43 0Z" opacity="1" transform="matrix(1,0,0,1,0,0)" fill="#106902" class="undefined-text-0" data-fill-palette-color="primary" id="text-0"></path></svg></g></svg></g><g transform="matrix(1,0,0,1,0,74.79492568035683)"><svg viewBox="0 0 395.52 17.17765616933402" height="17.17765616933402" width="395.52"><g transform="matrix(1,0,0,1,0,0)"><svg width="395.52" viewBox="3.2200000286102295 -37.84000015258789 1134.8699951171875 49.290000915527344" height="17.17765616933402" data-palette-color="#adbfb8"><path d="M35.03-6.35L35.03 0 12.13 0Q11.25 0 10.24-0.21 9.23-0.42 8.24-0.85 7.25-1.29 6.35-1.99 5.44-2.69 4.75-3.67 4.05-4.66 3.64-5.97 3.22-7.28 3.22-8.91L3.22-8.91 3.22-26.1Q3.22-26.98 3.43-27.99 3.64-29 4.08-29.99 4.52-30.98 5.22-31.88 5.93-32.79 6.92-33.48 7.91-34.18 9.2-34.59 10.5-35.01 12.13-35.01L12.13-35.01 35.03-35.01 35.03-28.66 12.13-28.66Q10.89-28.66 10.23-28 9.57-27.34 9.57-26.05L9.57-26.05 9.57-8.91Q9.57-7.69 10.24-7.02 10.91-6.35 12.13-6.35L12.13-6.35 35.03-6.35ZM68.72-17.5L68.72-8.91Q68.72-7.28 68.31-5.97 67.89-4.66 67.21-3.67 66.53-2.69 65.62-1.99 64.72-1.29 63.73-0.85 62.74-0.42 61.73-0.21 60.72 0 59.81 0L59.81 0 48.36 0Q47.04 0 45.48-0.46 43.92-0.93 42.59-1.99 41.26-3.05 40.37-4.75 39.48-6.45 39.48-8.91L39.48-8.91 39.48-17.5Q39.48-19.95 40.37-21.64 41.26-23.34 42.59-24.4 43.92-25.46 45.48-25.93 47.04-26.39 48.36-26.39L48.36-26.39 59.81-26.39Q62.25-26.39 63.96-25.51 65.67-24.63 66.72-23.3 67.77-21.97 68.25-20.41 68.72-18.85 68.72-17.5L68.72-17.5ZM62.38-8.91L62.38-17.46Q62.38-18.77 61.72-19.41 61.06-20.04 59.81-20.04L59.81-20.04 48.41-20.04Q47.14-20.04 46.48-19.4 45.82-18.75 45.82-17.5L45.82-17.5 45.82-8.91Q45.82-7.67 46.48-7.01 47.14-6.35 48.41-6.35L48.41-6.35 59.81-6.35Q61.11-6.35 61.74-7.01 62.38-7.67 62.38-8.91L62.38-8.91ZM103.36-14.65L103.36 0 97.02 0 97.02-14.65Q97.02-15.89 96.59-16.88 96.16-17.87 95.43-18.58 94.7-19.29 93.71-19.67 92.72-20.04 91.57-20.04L91.57-20.04 80.46-20.04 80.46 0 74.12 0 74.12-23.24Q74.12-23.9 74.36-24.48 74.6-25.05 75.04-25.48 75.48-25.9 76.07-26.15 76.66-26.39 77.31-26.39L77.31-26.39 91.62-26.39Q92.82-26.39 94.15-26.12 95.48-25.85 96.78-25.26 98.09-24.66 99.27-23.74 100.46-22.83 101.37-21.52 102.29-20.21 102.83-18.51 103.36-16.8 103.36-14.65L103.36-14.65ZM138.18-14.65L138.18 0 131.83 0 131.83-14.65Q131.83-15.89 131.4-16.88 130.97-17.87 130.24-18.58 129.51-19.29 128.52-19.67 127.53-20.04 126.38-20.04L126.38-20.04 115.28-20.04 115.28 0 108.93 0 108.93-23.24Q108.93-23.9 109.17-24.48 109.42-25.05 109.86-25.48 110.3-25.9 110.88-26.15 111.47-26.39 112.13-26.39L112.13-26.39 126.43-26.39Q127.63-26.39 128.96-26.12 130.29-25.85 131.6-25.26 132.9-24.66 134.09-23.74 135.27-22.83 136.19-21.52 137.1-20.21 137.64-18.51 138.18-16.8 138.18-14.65L138.18-14.65ZM172.13-17.65L172.13-17.65Q172.13-16.33 171.67-14.81 171.21-13.28 170.17-11.98 169.13-10.67 167.46-9.79 165.79-8.91 163.39-8.91L163.39-8.91 151.94-8.91 151.94-14.94 163.39-14.94Q164.69-14.94 165.4-15.73 166.1-16.53 166.1-17.7L166.1-17.7Q166.1-18.95 165.31-19.65 164.52-20.36 163.39-20.36L163.39-20.36 151.94-20.36Q150.65-20.36 149.94-19.57 149.23-18.77 149.23-17.6L149.23-17.6 149.23-8.74Q149.23-7.47 150.03-6.76 150.82-6.05 151.99-6.05L151.99-6.05 163.39-6.05 163.39 0 151.94 0Q150.62 0 149.1-0.46 147.57-0.93 146.27-1.97 144.96-3 144.08-4.68 143.2-6.35 143.2-8.74L143.2-8.74 143.2-17.65Q143.2-18.97 143.67-20.5 144.13-22.02 145.17-23.33 146.21-24.63 147.88-25.51 149.55-26.39 151.94-26.39L151.94-26.39 163.39-26.39Q164.71-26.39 166.24-25.93 167.76-25.46 169.07-24.43 170.38-23.39 171.25-21.72 172.13-20.04 172.13-17.65ZM201.97-6.35L201.97 0 184.75 0Q183.43 0 181.87-0.46 180.31-0.93 178.98-1.99 177.65-3.05 176.76-4.75 175.87-6.45 175.87-8.91L175.87-8.91 175.87-17.5Q175.87-18.41 176.07-19.41 176.28-20.41 176.72-21.4 177.16-22.39 177.86-23.29 178.55-24.19 179.54-24.88 180.53-25.56 181.82-25.98 183.12-26.39 184.75-26.39L184.75-26.39 201.97-26.39 201.97-20.04 184.75-20.04Q183.51-20.04 182.86-19.41 182.21-18.77 182.21-17.46L182.21-17.46 182.21-8.91Q182.21-7.67 182.87-7.01 183.53-6.35 184.8-6.35L184.8-6.35 201.97-6.35ZM231.21-26.39L231.21-20.04 220.13-20.04 220.13 0 213.71 0 213.71-20.04 205.45-20.04 205.45-26.39 213.71-26.39 213.71-35.01 220.13-35.01 220.13-26.39 231.21-26.39ZM241.83-37.55L241.83-31.81 235.48-31.81 235.48-37.55 241.83-37.55ZM241.83-26.39L241.83 0 235.48 0 235.48-26.39 241.83-26.39ZM277.15-14.65L277.15 0 270.81 0 270.81-14.65Q270.81-15.89 270.38-16.88 269.95-17.87 269.22-18.58 268.49-19.29 267.5-19.67 266.51-20.04 265.36-20.04L265.36-20.04 254.25-20.04 254.25 0 247.9 0 247.9-23.24Q247.9-23.9 248.15-24.48 248.39-25.05 248.83-25.48 249.27-25.9 249.86-26.15 250.44-26.39 251.1-26.39L251.1-26.39 265.41-26.39Q266.61-26.39 267.94-26.12 269.27-25.85 270.57-25.26 271.88-24.66 273.06-23.74 274.25-22.83 275.16-21.52 276.08-20.21 276.62-18.51 277.15-16.8 277.15-14.65L277.15-14.65ZM311.43-17.5L311.43 2.54Q311.43 4.17 311.01 5.48 310.6 6.79 309.91 7.78 309.23 8.76 308.33 9.46 307.42 10.16 306.44 10.6 305.45 11.04 304.43 11.24 303.42 11.45 302.52 11.45L302.52 11.45 291.07 11.45 291.07 5.1 302.52 5.1Q303.81 5.1 304.45 4.44 305.08 3.78 305.08 2.54L305.08 2.54 305.08-17.5Q305.08-18.75 304.45-19.4 303.81-20.04 302.52-20.04L302.52-20.04 291.07-20.04Q289.89-20.04 289.21-19.32 288.53-18.6 288.53-17.5L288.53-17.5 288.53-8.91Q288.53-7.67 289.19-7.01 289.85-6.35 291.12-6.35L291.12-6.35 302.52-6.35 302.52 0 291.07 0Q290.16 0 289.16-0.21 288.16-0.42 287.17-0.85 286.18-1.29 285.28-1.99 284.38-2.69 283.69-3.67 283.01-4.66 282.59-5.97 282.18-7.28 282.18-8.91L282.18-8.91 282.18-17.5Q282.18-18.41 282.39-19.41 282.59-20.41 283.03-21.4 283.47-22.39 284.17-23.29 284.87-24.19 285.85-24.88 286.84-25.56 288.14-25.98 289.43-26.39 291.07-26.39L291.07-26.39 302.52-26.39Q303.42-26.39 304.43-26.18 305.45-25.98 306.44-25.54 307.42-25.1 308.33-24.4 309.23-23.71 309.91-22.72 310.6-21.73 311.01-20.43 311.43-19.14 311.43-17.5L311.43-17.5ZM356.86-26.39L356.86-20.04 342.5-20.04 342.5-26.39 356.86-26.39ZM356.86-37.84L356.86-31.49 342.55-31.49Q341.26-31.49 340.6-30.85 339.94-30.2 339.94-28.96L339.94-28.96 339.94 0 333.59 0 333.59-28.96Q333.59-30.59 334.01-31.88 334.42-33.18 335.12-34.17 335.81-35.16 336.72-35.85 337.62-36.55 338.61-36.99 339.6-37.43 340.6-37.63 341.6-37.84 342.5-37.84L342.5-37.84 356.86-37.84ZM386.2-17.65L386.2-8.74Q386.2-7.42 385.74-5.9 385.27-4.37 384.24-3.06 383.2-1.76 381.53-0.88 379.85 0 377.46 0L377.46 0 366.01 0Q364.69 0 363.17-0.46 361.64-0.93 360.33-1.97 359.03-3 358.15-4.68 357.27-6.35 357.27-8.74L357.27-8.74Q357.27-10.06 357.73-11.6 358.2-13.13 359.24-14.44 360.27-15.75 361.95-16.63 363.62-17.5 366.01-17.5L366.01-17.5 377.46-17.5 377.46-11.45 366.01-11.45Q364.72-11.45 364.01-10.66 363.3-9.86 363.3-8.69L363.3-8.69Q363.3-7.45 364.12-6.75 364.94-6.05 366.06-6.05L366.06-6.05 377.46-6.05Q378.75-6.05 379.46-6.84 380.17-7.62 380.17-8.79L380.17-8.79 380.17-17.65Q380.17-18.9 379.4-19.63 378.63-20.36 377.46-20.36L377.46-20.36 363.52-20.36 363.52-26.39 377.46-26.39Q378.78-26.39 380.3-25.93 381.83-25.46 383.14-24.43 384.44-23.39 385.32-21.72 386.2-20.04 386.2-17.65L386.2-17.65ZM414.71-26.39L414.71-20.04 400.43-20.04Q399.14-20.04 398.48-19.4 397.82-18.75 397.82-17.5L397.82-17.5 397.82 0 391.47 0 391.47-17.5Q391.47-19.14 391.89-20.43 392.3-21.73 393-22.72 393.69-23.71 394.6-24.4 395.5-25.1 396.49-25.54 397.48-25.98 398.49-26.18 399.5-26.39 400.38-26.39L400.38-26.39 414.71-26.39ZM442.45-17.5L442.45 0 436.1 0 436.1-17.5Q436.1-18.75 435.44-19.4 434.78-20.04 433.49-20.04L433.49-20.04 425.23-20.04 425.23 0 418.89 0 418.89-23.24Q418.89-23.9 419.13-24.48 419.37-25.05 419.81-25.48 420.25-25.9 420.84-26.15 421.42-26.39 422.08-26.39L422.08-26.39 433.53-26.39Q434.85-26.39 436.37-25.93 437.88-25.46 439.25-24.44L439.25-24.44 439.25-26.39 447.84-26.39Q448.74-26.39 449.75-26.18 450.75-25.98 451.74-25.54 452.72-25.1 453.63-24.4 454.53-23.71 455.21-22.72 455.9-21.73 456.31-20.43 456.73-19.14 456.73-17.5L456.73-17.5 456.73 0 450.38 0 450.38-17.5Q450.38-18.75 449.76-19.4 449.13-20.04 447.84-20.04L447.84-20.04 442.13-20.04Q442.45-18.87 442.45-17.5L442.45-17.5ZM490.95-17.65L490.95-17.65Q490.95-16.33 490.49-14.81 490.03-13.28 488.99-11.98 487.95-10.67 486.28-9.79 484.61-8.91 482.21-8.91L482.21-8.91 470.76-8.91 470.76-14.94 482.21-14.94Q483.51-14.94 484.22-15.73 484.92-16.53 484.92-17.7L484.92-17.7Q484.92-18.95 484.13-19.65 483.34-20.36 482.21-20.36L482.21-20.36 470.76-20.36Q469.47-20.36 468.76-19.57 468.05-18.77 468.05-17.6L468.05-17.6 468.05-8.74Q468.05-7.47 468.85-6.76 469.64-6.05 470.81-6.05L470.81-6.05 482.21-6.05 482.21 0 470.76 0Q469.44 0 467.92-0.46 466.39-0.93 465.09-1.97 463.78-3 462.9-4.68 462.02-6.35 462.02-8.74L462.02-8.74 462.02-17.65Q462.02-18.97 462.49-20.5 462.95-22.02 463.99-23.33 465.03-24.63 466.7-25.51 468.37-26.39 470.76-26.39L470.76-26.39 482.21-26.39Q483.53-26.39 485.06-25.93 486.58-25.46 487.89-24.43 489.2-23.39 490.07-21.72 490.95-20.04 490.95-17.65ZM518.32-26.39L518.32-20.04 504.04-20.04Q502.74-20.04 502.08-19.4 501.42-18.75 501.42-17.5L501.42-17.5 501.42 0 495.08 0 495.08-17.5Q495.08-19.14 495.49-20.43 495.91-21.73 496.6-22.72 497.3-23.71 498.2-24.4 499.11-25.1 500.09-25.54 501.08-25.98 502.1-26.18 503.11-26.39 503.99-26.39L503.99-26.39 518.32-26.39ZM548-8.91L548-8.91Q548-7.28 547.59-5.97 547.17-4.66 546.49-3.67 545.81-2.69 544.9-1.99 544-1.29 543.01-0.85 542.02-0.42 541.01-0.21 540 0 539.09 0L539.09 0 521.91 0 521.91-6.35 539.04-6.35Q540.34-6.35 541-7.01 541.66-7.67 541.66-8.91L541.66-8.91Q541.53-11.45 539.09-11.45L539.09-11.45 529.25-11.45Q527.15-11.45 525.69-12.18 524.23-12.92 523.31-14.01 522.39-15.11 521.99-16.38 521.59-17.65 521.59-18.75L521.59-18.75Q521.59-20.87 522.35-22.33 523.1-23.78 524.25-24.68 525.4-25.59 526.74-25.99 528.08-26.39 529.25-26.39L529.25-26.39 544.85-26.39 544.85-20.04 529.3-20.04Q528.81-20.04 528.53-19.93 528.25-19.82 528.12-19.64 527.98-19.46 527.96-19.25 527.94-19.04 527.94-18.85L527.94-18.85Q527.96-18.46 528.08-18.24 528.2-18.02 528.39-17.92 528.57-17.82 528.8-17.81 529.03-17.8 529.25-17.8L529.25-17.8 539.09-17.8Q541.53-17.8 543.24-16.92 544.95-16.04 546-14.71 547.05-13.38 547.53-11.82 548-10.25 548-8.91ZM558.84-7.79L555.06 4.49 550.59 4.49 552.86-7.79 558.84-7.79ZM609.06-17.5L609.06-8.91Q609.06-8.01 608.85-7.01 608.64-6.01 608.2-5.02 607.76-4.03 607.07-3.13 606.37-2.22 605.38-1.53 604.39-0.83 603.1-0.42 601.81 0 600.17 0L600.17 0 588.72 0Q587.82 0 586.82-0.21 585.81-0.42 584.83-0.85 583.84-1.29 582.93-1.99 582.03-2.69 581.33-3.67 580.64-4.66 580.22-5.97 579.81-7.28 579.81-8.91L579.81-8.91 579.81-37.55 586.16-37.55 586.16-8.91Q586.16-7.74 586.89-7.04 587.62-6.35 588.72-6.35L588.72-6.35 600.17-6.35Q601.37-6.35 602.04-7.06 602.71-7.76 602.71-8.91L602.71-8.91 602.71-17.5Q602.71-18.7 602-19.37 601.29-20.04 600.17-20.04L600.17-20.04 588.72-20.04 588.72-26.39 600.17-26.39Q601.07-26.39 602.07-26.18 603.07-25.98 604.06-25.54 605.05-25.1 605.96-24.4 606.86-23.71 607.54-22.72 608.23-21.73 608.64-20.43 609.06-19.14 609.06-17.5L609.06-17.5ZM643.33-26.39L643.33-3.2Q643.33-2.51 643.09-1.93 642.84-1.34 642.42-0.92 641.99-0.49 641.41-0.24 640.84 0 640.18 0L640.18 0 625.83 0Q624.65 0 623.32-0.27 621.99-0.54 620.7-1.14 619.41-1.73 618.2-2.65 616.99-3.56 616.09-4.87 615.18-6.18 614.63-7.89 614.08-9.59 614.08-11.74L614.08-11.74 614.08-26.39 620.43-26.39 620.43-11.74Q620.43-10.5 620.86-9.51 621.29-8.52 622.02-7.81 622.75-7.1 623.74-6.73 624.73-6.35 625.88-6.35L625.88-6.35 636.98-6.35 636.98-26.39 643.33-26.39ZM678.39-26.39L678.39 2.54Q678.39 4.17 677.97 5.48 677.56 6.79 676.87 7.78 676.19 8.76 675.29 9.46 674.38 10.16 673.39 10.6 672.41 11.04 671.4 11.24 670.4 11.45 669.5 11.45L669.5 11.45 658.05 11.45 658.05 5.1 669.5 5.1Q670.77 5.1 671.4 4.44 672.04 3.78 672.04 2.54L672.04 2.54 672.04-26.39 678.39-26.39ZM669.5-6.35L669.5 0 658.05 0Q656.68 0 655.13-0.46 653.58-0.93 652.24-1.99 650.9-3.05 650.02-4.75 649.14-6.45 649.14-8.91L649.14-8.91 649.14-26.39 655.49-26.39 655.49-8.91Q655.49-7.67 656.15-7.01 656.81-6.35 658.1-6.35L658.1-6.35 669.5-6.35ZM712.83-17.65L712.83-17.65Q712.83-16.33 712.37-14.81 711.91-13.28 710.87-11.98 709.83-10.67 708.16-9.79 706.49-8.91 704.09-8.91L704.09-8.91 692.64-8.91 692.64-14.94 704.09-14.94Q705.39-14.94 706.09-15.73 706.8-16.53 706.8-17.7L706.8-17.7Q706.8-18.95 706.01-19.65 705.22-20.36 704.09-20.36L704.09-20.36 692.64-20.36Q691.35-20.36 690.64-19.57 689.93-18.77 689.93-17.6L689.93-17.6 689.93-8.74Q689.93-7.47 690.73-6.76 691.52-6.05 692.69-6.05L692.69-6.05 704.09-6.05 704.09 0 692.64 0Q691.32 0 689.8-0.46 688.27-0.93 686.97-1.97 685.66-3 684.78-4.68 683.9-6.35 683.9-8.74L683.9-8.74 683.9-17.65Q683.9-18.97 684.37-20.5 684.83-22.02 685.87-23.33 686.91-24.63 688.58-25.51 690.25-26.39 692.64-26.39L692.64-26.39 704.09-26.39Q705.41-26.39 706.94-25.93 708.46-25.46 709.77-24.43 711.08-23.39 711.95-21.72 712.83-20.04 712.83-17.65ZM740.2-26.39L740.2-20.04 725.92-20.04Q724.62-20.04 723.96-19.4 723.3-18.75 723.3-17.5L723.3-17.5 723.3 0 716.96 0 716.96-17.5Q716.96-19.14 717.37-20.43 717.79-21.73 718.48-22.72 719.18-23.71 720.08-24.4 720.98-25.1 721.97-25.54 722.96-25.98 723.98-26.18 724.99-26.39 725.87-26.39L725.87-26.39 740.2-26.39ZM769.88-8.91L769.88-8.91Q769.88-7.28 769.47-5.97 769.05-4.66 768.37-3.67 767.69-2.69 766.78-1.99 765.88-1.29 764.89-0.85 763.9-0.42 762.89-0.21 761.88 0 760.97 0L760.97 0 743.79 0 743.79-6.35 760.92-6.35Q762.22-6.35 762.88-7.01 763.54-7.67 763.54-8.91L763.54-8.91Q763.41-11.45 760.97-11.45L760.97-11.45 751.13-11.45Q749.03-11.45 747.57-12.18 746.1-12.92 745.19-14.01 744.27-15.11 743.87-16.38 743.47-17.65 743.47-18.75L743.47-18.75Q743.47-20.87 744.22-22.33 744.98-23.78 746.13-24.68 747.28-25.59 748.62-25.99 749.96-26.39 751.13-26.39L751.13-26.39 766.73-26.39 766.73-20.04 751.18-20.04Q750.69-20.04 750.41-19.93 750.13-19.82 750-19.64 749.86-19.46 749.84-19.25 749.82-19.04 749.82-18.85L749.82-18.85Q749.84-18.46 749.96-18.24 750.08-18.02 750.27-17.92 750.45-17.82 750.68-17.81 750.91-17.8 751.13-17.8L751.13-17.8 760.97-17.8Q763.41-17.8 765.12-16.92 766.83-16.04 767.88-14.71 768.93-13.38 769.41-11.82 769.88-10.25 769.88-8.91ZM780.72-7.79L776.94 4.49 772.47 4.49 774.74-7.79 780.72-7.79ZM828.84-17.65L828.84-8.74Q828.84-7.42 828.37-5.9 827.91-4.37 826.87-3.06 825.83-1.76 824.16-0.88 822.49 0 820.1 0L820.1 0 808.65 0Q807.33 0 805.8-0.46 804.28-0.93 802.97-1.97 801.66-3 800.78-4.68 799.91-6.35 799.91-8.74L799.91-8.74Q799.91-10.06 800.37-11.6 800.83-13.13 801.87-14.44 802.91-15.75 804.58-16.63 806.25-17.5 808.65-17.5L808.65-17.5 820.1-17.5 820.1-11.45 808.65-11.45Q807.35-11.45 806.64-10.66 805.94-9.86 805.94-8.69L805.94-8.69Q805.94-7.45 806.75-6.75 807.57-6.05 808.69-6.05L808.69-6.05 820.1-6.05Q821.39-6.05 822.1-6.84 822.81-7.62 822.81-8.79L822.81-8.79 822.81-17.65Q822.81-18.9 822.04-19.63 821.27-20.36 820.1-20.36L820.1-20.36 806.16-20.36 806.16-26.39 820.1-26.39Q821.41-26.39 822.94-25.93 824.47-25.46 825.77-24.43 827.08-23.39 827.96-21.72 828.84-20.04 828.84-17.65L828.84-17.65ZM863.5-14.65L863.5 0 857.15 0 857.15-14.65Q857.15-15.89 856.73-16.88 856.3-17.87 855.57-18.58 854.83-19.29 853.85-19.67 852.86-20.04 851.71-20.04L851.71-20.04 840.6-20.04 840.6 0 834.25 0 834.25-23.24Q834.25-23.9 834.5-24.48 834.74-25.05 835.18-25.48 835.62-25.9 836.21-26.15 836.79-26.39 837.45-26.39L837.45-26.39 851.76-26.39Q852.95-26.39 854.29-26.12 855.62-25.85 856.92-25.26 858.23-24.66 859.41-23.74 860.6-22.83 861.51-21.52 862.43-20.21 862.96-18.51 863.5-16.8 863.5-14.65L863.5-14.65ZM898.02-37.55L898.02-8.91Q898.02-7.28 897.61-5.97 897.19-4.66 896.51-3.67 895.82-2.69 894.92-1.99 894.02-1.29 893.03-0.85 892.04-0.42 891.03-0.21 890.01 0 889.11 0L889.11 0 877.66 0Q876.02 0 874.73-0.42 873.44-0.83 872.45-1.53 871.46-2.22 870.76-3.13 870.07-4.03 869.63-5.02 869.19-6.01 868.98-7.02 868.77-8.03 868.77-8.91L868.77-8.91 868.77-17.5Q868.77-19.95 869.66-21.64 870.55-23.34 871.89-24.4 873.22-25.46 874.78-25.93 876.34-26.39 877.66-26.39L877.66-26.39 889.11-26.39 889.11-20.04 877.71-20.04Q876.44-20.04 875.78-19.4 875.12-18.75 875.12-17.5L875.12-17.5 875.12-8.96Q875.12-7.67 875.77-7.01 876.41-6.35 877.66-6.35L877.66-6.35 889.11-6.35Q890.4-6.35 891.04-7.01 891.67-7.67 891.67-8.91L891.67-8.91 891.67-37.55 898.02-37.55ZM945.84-8.91L945.84-8.91Q945.84-7.28 945.43-5.97 945.01-4.66 944.33-3.67 943.65-2.69 942.74-1.99 941.84-1.29 940.85-0.85 939.86-0.42 938.85-0.21 937.84 0 936.93 0L936.93 0 919.74 0 919.74-6.35 936.88-6.35Q938.18-6.35 938.84-7.01 939.5-7.67 939.5-8.91L939.5-8.91Q939.37-11.45 936.93-11.45L936.93-11.45 927.09-11.45Q924.99-11.45 923.53-12.18 922.06-12.92 921.15-14.01 920.23-15.11 919.83-16.38 919.43-17.65 919.43-18.75L919.43-18.75Q919.43-20.87 920.18-22.33 920.94-23.78 922.09-24.68 923.24-25.59 924.58-25.99 925.92-26.39 927.09-26.39L927.09-26.39 942.69-26.39 942.69-20.04 927.14-20.04Q926.65-20.04 926.37-19.93 926.09-19.82 925.96-19.64 925.82-19.46 925.8-19.25 925.77-19.04 925.77-18.85L925.77-18.85Q925.8-18.46 925.92-18.24 926.04-18.02 926.23-17.92 926.41-17.82 926.64-17.81 926.87-17.8 927.09-17.8L927.09-17.8 936.93-17.8Q939.37-17.8 941.08-16.92 942.79-16.04 943.84-14.71 944.89-13.38 945.37-11.82 945.84-10.25 945.84-8.91ZM979.14-26.39L979.14-3.2Q979.14-2.51 978.9-1.93 978.65-1.34 978.23-0.92 977.8-0.49 977.22-0.24 976.65 0 975.99 0L975.99 0 961.64 0Q960.46 0 959.13-0.27 957.8-0.54 956.51-1.14 955.22-1.73 954.01-2.65 952.8-3.56 951.9-4.87 950.99-6.18 950.44-7.89 949.89-9.59 949.89-11.74L949.89-11.74 949.89-26.39 956.24-26.39 956.24-11.74Q956.24-10.5 956.67-9.51 957.1-8.52 957.83-7.81 958.56-7.1 959.55-6.73 960.54-6.35 961.69-6.35L961.69-6.35 972.79-6.35 972.79-26.39 979.14-26.39ZM1014.2-17.5L1014.2-8.91Q1014.2-7.28 1013.78-5.97 1013.37-4.66 1012.68-3.67 1012-2.69 1011.1-1.99 1010.19-1.29 1009.2-0.85 1008.22-0.42 1007.21-0.21 1006.21 0 1005.31 0L1005.31 0 993.86 0 993.86-6.35 1005.31-6.35Q1006.58-6.35 1007.21-7.01 1007.85-7.67 1007.85-8.91L1007.85-8.91 1007.85-17.46Q1007.85-18.77 1007.2-19.41 1006.56-20.04 1005.31-20.04L1005.31-20.04 993.91-20.04Q992.62-20.04 991.96-19.4 991.3-18.75 991.3-17.5L991.3-17.5 991.3 8.25 984.95 8.25 984.95-17.5Q984.95-19.14 985.36-20.43 985.78-21.73 986.48-22.72 987.17-23.71 988.07-24.4 988.98-25.1 989.97-25.54 990.96-25.98 991.97-26.18 992.98-26.39 993.86-26.39L993.86-26.39 1005.31-26.39Q1006.95-26.39 1008.24-25.98 1009.53-25.56 1010.52-24.88 1011.51-24.19 1012.21-23.29 1012.9-22.39 1013.34-21.4 1013.78-20.41 1013.99-19.41 1014.2-18.41 1014.2-17.5L1014.2-17.5ZM1048.72-17.5L1048.72-8.91Q1048.72-7.28 1048.3-5.97 1047.89-4.66 1047.2-3.67 1046.52-2.69 1045.62-1.99 1044.71-1.29 1043.72-0.85 1042.73-0.42 1041.73-0.21 1040.73 0 1039.83 0L1039.83 0 1028.38 0 1028.38-6.35 1039.83-6.35Q1041.1-6.35 1041.73-7.01 1042.37-7.67 1042.37-8.91L1042.37-8.91 1042.37-17.46Q1042.37-18.77 1041.72-19.41 1041.07-20.04 1039.83-20.04L1039.83-20.04 1028.43-20.04Q1027.13-20.04 1026.47-19.4 1025.82-18.75 1025.82-17.5L1025.82-17.5 1025.82 8.25 1019.47 8.25 1019.47-17.5Q1019.47-19.14 1019.88-20.43 1020.3-21.73 1020.99-22.72 1021.69-23.71 1022.59-24.4 1023.5-25.1 1024.49-25.54 1025.47-25.98 1026.49-26.18 1027.5-26.39 1028.38-26.39L1028.38-26.39 1039.83-26.39Q1041.47-26.39 1042.76-25.98 1044.05-25.56 1045.04-24.88 1046.03-24.19 1046.73-23.29 1047.42-22.39 1047.86-21.4 1048.3-20.41 1048.51-19.41 1048.72-18.41 1048.72-17.5L1048.72-17.5ZM1065.73-6.35L1065.73 0 1062.9 0Q1061.53 0 1059.98-0.46 1058.43-0.93 1057.09-1.99 1055.74-3.05 1054.87-4.75 1053.99-6.45 1053.99-8.91L1053.99-8.91 1053.99-37.55 1060.33-37.55 1060.33-8.91Q1060.33-7.74 1061.07-7.04 1061.8-6.35 1062.9-6.35L1062.9-6.35 1065.73-6.35ZM1076.25-37.55L1076.25-31.81 1069.9-31.81 1069.9-37.55 1076.25-37.55ZM1076.25-26.39L1076.25 0 1069.9 0 1069.9-26.39 1076.25-26.39ZM1110.72-17.65L1110.72-17.65Q1110.72-16.33 1110.26-14.81 1109.79-13.28 1108.76-11.98 1107.72-10.67 1106.05-9.79 1104.37-8.91 1101.98-8.91L1101.98-8.91 1090.53-8.91 1090.53-14.94 1101.98-14.94Q1103.27-14.94 1103.98-15.73 1104.69-16.53 1104.69-17.7L1104.69-17.7Q1104.69-18.95 1103.9-19.65 1103.1-20.36 1101.98-20.36L1101.98-20.36 1090.53-20.36Q1089.24-20.36 1088.53-19.57 1087.82-18.77 1087.82-17.6L1087.82-17.6 1087.82-8.74Q1087.82-7.47 1088.61-6.76 1089.41-6.05 1090.58-6.05L1090.58-6.05 1101.98-6.05 1101.98 0 1090.53 0Q1089.21 0 1087.69-0.46 1086.16-0.93 1084.85-1.97 1083.55-3 1082.67-4.68 1081.79-6.35 1081.79-8.74L1081.79-8.74 1081.79-17.65Q1081.79-18.97 1082.25-20.5 1082.72-22.02 1083.76-23.33 1084.79-24.63 1086.47-25.51 1088.14-26.39 1090.53-26.39L1090.53-26.39 1101.98-26.39Q1103.3-26.39 1104.82-25.93 1106.35-25.46 1107.66-24.43 1108.96-23.39 1109.84-21.72 1110.72-20.04 1110.72-17.65ZM1138.09-26.39L1138.09-20.04 1123.8-20.04Q1122.51-20.04 1121.85-19.4 1121.19-18.75 1121.19-17.5L1121.19-17.5 1121.19 0 1114.84 0 1114.84-17.5Q1114.84-19.14 1115.26-20.43 1115.67-21.73 1116.37-22.72 1117.07-23.71 1117.97-24.4 1118.87-25.1 1119.86-25.54 1120.85-25.98 1121.86-26.18 1122.88-26.39 1123.76-26.39L1123.76-26.39 1138.09-26.39Z" opacity="1" transform="matrix(1,0,0,1,0,0)" fill="#adbfb8" class="undefined-text-1" data-fill-palette-color="secondary" id="text-1"></path></svg></g></svg></g></svg></g></svg></g><g transform="matrix(1,0,0,1,76.53311999999997,0)"><svg viewBox="0 0 244.43135999999998 118.1972049940352" height="118.1972049940352" width="244.43135999999998"><g><svg xmlns="http://www.w3.org/2000/svg" data-name="Layer 1" viewBox="13.229999542236328 30.540000915527344 73.15000915527344 37.849998474121094" x="8" y="0" height="118.1972049940352" width="228.43135999999998" class="icon-icon-0" data-fill-palette-color="accent" id="icon-0"><path d="M83.65 46.76H65.52a2.89 2.89 0 0 0-2.09 0.86L49.8 61.24l-9.91-9.91V59.7l7.82 7.82a3 3 0 0 0 4.18 0L62.78 56.63v9a2.74 2.74 0 0 0 2.73 2.73H83.65a2.73 2.73 0 0 0 2.73-2.73V49.49A2.74 2.74 0 0 0 83.65 46.76Z" fill="#096a2e" data-fill-palette-color="accent"></path><rect x="13.23" y="46.76" width="23.6" height="21.63" rx="2.73" ry="2.73" fill="#096a2e" data-fill-palette-color="accent"></rect><circle cx="25.03" cy="36.86" r="6.3" fill="#096a2e" data-fill-palette-color="accent"></circle><circle cx="25.03" cy="36.86" r="6.3" fill="#096a2e" data-fill-palette-color="accent"></circle><circle cx="74.58" cy="36.86" r="6.3" fill="#096a2e" data-fill-palette-color="accent"></circle><circle cx="74.58" cy="36.86" r="6.3" fill="#096a2e" data-fill-palette-color="accent"></circle></svg></g></svg></g><g><rect width="0" height="5.456851832911473" y="111.74035316112374" x="320.96448" fill="#adbfb8" data-fill-palette-color="secondary"></rect><rect width="0" height="5.456851832911473" y="111.74035316112374" x="76.53311999999997" fill="#adbfb8" data-fill-palette-color="secondary"></rect></g></svg></g><defs></defs></svg><rect width="395.52" height="242.98163538407047" fill="none" stroke="none" visibility="hidden"></rect></g></svg></g></svg>